<?xml version="1.0" encoding="UTF-8"?><svg id="Layer_1" xmlns="http://www.w3.org/2000/svg" viewBox="0 0 1110.39 1063.7"><defs><style>.cls-1{letter-spacing:.01em;}.cls-2{letter-spacing:.04em;}.cls-3{letter-spacing:-.09em;}.cls-4{letter-spacing:-.09em;}.cls-5{fill:#44c8f5;}.cls-6{letter-spacing:-.1em;}.cls-7{letter-spacing:0em;}.cls-8{font-size:20px;}.cls-8,.cls-9,.cls-10,.cls-11,.cls-12,.cls-13{fill:#fff;}.cls-8,.cls-10,.cls-11,.cls-12,.cls-13{font-family:FuturaPT-Bold, 'Futura PT';font-weight:700;}.cls-14{letter-spacing:-.05em;}.cls-15{letter-spacing:-.03em;}.cls-16{letter-spacing:-.01em;}.cls-17{letter-spacing:-.12em;}.cls-18{letter-spacing:-.1em;}.cls-19{letter-spacing:0em;}.cls-10{font-size:31px;}.cls-20{letter-spacing:.02em;}.cls-21{letter-spacing:-.02em;}.cls-22{letter-spacing:-.02em;}.cls-23{letter-spacing:-.05em;}.cls-24{fill:none;stroke:#d0952b;stroke-linecap:round;stroke-linejoin:round;stroke-width:7.87px;}.cls-25{letter-spacing:-.04em;}.cls-26{letter-spacing:-.16em;}.cls-27{letter-spacing:0em;}.cls-11{font-size:36px;}.cls-28{letter-spacing:0em;}.cls-29{letter-spacing:-.11em;}.cls-30{letter-spacing:-.11em;}.cls-12{font-size:30px;}.cls-31{letter-spacing:-.08em;}.cls-13{font-size:15.23px;}.cls-32{letter-spacing:0em;}.cls-33{letter-spacing:0em;}.cls-34{letter-spacing:0em;}.cls-35{letter-spacing:-.02em;}</style></defs><text class="cls-8" transform="translate(866.72 87.81)"><tspan x="0" y="0">GOLI</tspan><tspan class="cls-15" x="47.46" y="0">A</tspan><tspan x="61.08" y="0">TH </tspan></text><text class="cls-8" transform="translate(866.72 106.08)"><tspan x="0" y="0">SIDE HALL</tspan></text><text class="cls-13" transform="translate(945.9 112.82)"><tspan x="0" y="0"> </tspan></text><text class="cls-8" transform="translate(866.72 124.35)"><tspan class="cls-15" x="0" y="0">T</tspan><tspan x="8.84" y="0">ABLES </tspan><tspan class="cls-18" x="70.66" y="0">7</tspan><tspan x="80.68" y="0">1 - 99</tspan></text><polygon class="cls-9" points="973.62 61.21 968.12 68 976.98 66.8 961.58 85.82 967 90.21 982.4 71.19 983.07 80.11 988.56 73.32 987.52 59.32 973.62 61.21"/><text class="cls-12" transform="translate(1074.14 352.82) rotate(90)"><tspan class="cls-28" x="0" y="0">H</tspan><tspan class="cls-19" x="22.38" y="0">AL</tspan><tspan class="cls-32" x="58.38" y="0">L 3 </tspan><tspan class="cls-27" x="105.06" y="0">/</tspan><tspan class="cls-19" x="125.34" y="0">C</tspan><tspan class="cls-16" x="143.31" y="0">A</tspan><tspan class="cls-7" x="164.19" y="0">S</tspan><tspan class="cls-19" x="181.59" y="0">IN</tspan><tspan x="215.73" y="0">O</tspan></text><polygon class="cls-9" points="1100.17 316.09 1091.43 316.09 1097.95 322.22 1073.47 322.22 1073.47 329.19 1097.95 329.19 1091.43 335.32 1100.17 335.32 1110.39 325.71 1100.17 316.09"/><text class="cls-12" transform="translate(0 1052.38)"><tspan class="cls-19" x="0" y="0">A</tspan><tspan class="cls-14" x="21.6" y="0">L</tspan><tspan class="cls-19" x="34.17" y="0">T</tspan><tspan class="cls-28" x="48.6" y="0">E</tspan><tspan class="cls-19" x="63.54" y="0">RN</tspan><tspan class="cls-22" x="107.1" y="0">A</tspan><tspan class="cls-28" x="127.8" y="0">T</tspan><tspan class="cls-27" x="142.2" y="0">E</tspan><tspan class="cls-32" x="156.99" y="0"> </tspan><tspan class="cls-1" x="164.13" y="0">D</tspan><tspan class="cls-28" x="185.28" y="0">E</tspan><tspan class="cls-19" x="200.22" y="0">S</tspan><tspan class="cls-27" x="217.65" y="0">K</tspan><tspan class="cls-34" x="238.77" y="0" xml:space="preserve"> /</tspan><tspan class="cls-32" x="265.92" y="0"> </tspan><tspan class="cls-1" x="273.06" y="0">C</tspan><tspan class="cls-16" x="291.03" y="0">A</tspan><tspan class="cls-19" x="311.91" y="0">SIN</tspan><tspan class="cls-34" x="363.48" y="0">O</tspan></text><polygon class="cls-9" points="418.54 1026.79 418.54 1051.26 412.41 1044.75 412.41 1053.49 422.02 1063.7 431.64 1053.49 431.64 1044.75 425.51 1051.26 425.51 1026.79 418.54 1026.79"/><rect class="cls-24" x="50" y="8.94" width="980" height="980" rx="52.93" ry="52.93"/><g id="Table-1"><rect class="cls-24" x="931.54" y="855.92" width="53.2" height="92.57" rx="26.6" ry="26.6"/><text class="cls-11" transform="translate(946.67 891.41) rotate(90)"><tspan x="0" y="0">1</tspan></text></g><g id="Table-2"><rect class="cls-24" x="854.94" y="855.92" width="53.2" height="92.57" rx="26.6" ry="26.6"/><text class="cls-11" transform="translate(870.06 891.41) rotate(90)"><tspan x="0" y="0">2</tspan></text></g><g id="Table-3"><rect class="cls-24" x="778.33" y="855.92" width="53.2" height="92.57" rx="26.6" ry="26.6"/><text class="cls-11" transform="translate(793.46 891.41) rotate(90)"><tspan x="0" y="0">3</tspan></text></g><g id="Table-4"><rect class="cls-24" x="701.72" y="855.92" width="53.2" height="92.57" rx="26.6" ry="26.6"/><text class="cls-11" transform="translate(716.85 891.41) rotate(90)"><tspan x="0" y="0">4</tspan></text></g><g id="Table-5"><rect class="cls-24" x="625.11" y="855.92" width="53.2" height="92.57" rx="26.6" ry="26.6"/><text class="cls-11" transform="translate(640.24 891.41) rotate(90)"><tspan x="0" y="0">5</tspan></text></g><g id="Table-6"><rect class="cls-24" x="548.51" y="855.92" width="53.2" height="92.57" rx="26.6" ry="26.6"/><text class="cls-11" transform="translate(563.63 891.41) rotate(90)"><tspan x="0" y="0">6</tspan></text></g><g id="Table-7"><rect class="cls-24" x="471.9" y="855.92" width="53.2" height="92.57" rx="26.6" ry="26.6"/><text class="cls-11" transform="translate(487.03 891.41) rotate(90)"><tspan x="0" y="0">7</tspan></text></g><g id="Table-8"><rect class="cls-24" x="318.69" y="855.92" width="53.2" height="92.57" rx="26.6" ry="26.6"/><text class="cls-11" transform="translate(333.82 891.41) rotate(90)"><tspan x="0" y="0">8</tspan></text></g><g id="Table-9"><rect class="cls-24" x="242.08" y="855.92" width="53.2" height="92.57" rx="26.6" ry="26.6"/><text class="cls-11" transform="translate(257.21 891.41) rotate(90)"><tspan x="0" y="0">9</tspan></text></g><g id="Table-10"><rect class="cls-24" x="165.47" y="855.92" width="53.2" height="92.57" rx="26.6" ry="26.6"/><text class="cls-11" transform="translate(180.6 882.17) rotate(90)"><tspan class="cls-3" x="0" y="0">1</tspan><tspan x="18.47" y="0">0</tspan></text></g><g id="Table-11"><rect class="cls-24" x="88.87" y="855.92" width="53.2" height="92.57" rx="26.6" ry="26.6"/><text class="cls-11" transform="translate(104 883.52) rotate(90)"><tspan class="cls-26" x="0" y="0">1</tspan><tspan x="15.77" y="0">1</tspan></text></g><g id="Table-12"><rect class="cls-24" x="778.33" y="740.67" width="53.2" height="92.57" rx="26.6" ry="26.6"/><text class="cls-11" transform="translate(793.46 767.6) rotate(90)"><tspan class="cls-17" x="0" y="0">1</tspan><tspan x="17.1" y="0">2</tspan></text></g><g id="Table-13"><rect class="cls-24" x="701.72" y="740.67" width="53.2" height="92.57" rx="26.6" ry="26.6"/><text class="cls-11" transform="translate(716.85 767.37) rotate(90)"><tspan class="cls-30" x="0" y="0">1</tspan><tspan x="17.57" y="0">3</tspan></text></g><g id="Table-14"><rect class="cls-24" x="625.11" y="740.67" width="53.2" height="92.57" rx="26.6" ry="26.6"/><text class="cls-11" transform="translate(640.24 767.37) rotate(90)"><tspan class="cls-30" x="0" y="0">1</tspan><tspan x="17.57" y="0">4</tspan></text></g><g id="Table-15"><rect class="cls-24" x="548.51" y="740.67" width="53.2" height="92.57" rx="26.6" ry="26.6"/><text class="cls-11" transform="translate(563.63 767.6) rotate(90)"><tspan class="cls-17" x="0" y="0">1</tspan><tspan x="17.1" y="0">5</tspan></text></g><g id="Table-16"><rect class="cls-24" x="471.9" y="740.67" width="53.2" height="92.57" rx="26.6" ry="26.6"/><text class="cls-11" transform="translate(487.03 766.92) rotate(90)"><tspan class="cls-3" x="0" y="0">1</tspan><tspan x="18.47" y="0">6</tspan></text></g><g id="Table-17"><rect class="cls-24" x="318.69" y="740.67" width="53.2" height="92.57" rx="26.6" ry="26.6"/><text class="cls-11" transform="translate(333.82 767.37) rotate(90)"><tspan class="cls-30" x="0" y="0">1</tspan><tspan x="17.57" y="0">7</tspan></text></g><g id="Table-18"><rect class="cls-24" x="242.08" y="740.67" width="53.2" height="92.57" rx="26.6" ry="26.6"/><text class="cls-11" transform="translate(257.21 766.92) rotate(90)"><tspan class="cls-3" x="0" y="0">1</tspan><tspan x="18.47" y="0">8</tspan></text></g><g id="Table-19"><rect class="cls-24" x="165.47" y="740.67" width="53.2" height="92.57" rx="26.6" ry="26.6"/><text class="cls-11" transform="translate(180.6 767.15) rotate(90)"><tspan class="cls-6" x="0" y="0">1</tspan><tspan x="18" y="0">9</tspan></text></g><g id="Table-20"><rect class="cls-24" x="88.87" y="740.67" width="53.2" height="92.57" rx="26.6" ry="26.6"/><text class="cls-11" transform="translate(104 765.35) rotate(90)"><tspan x="0" y="0">20</tspan></text></g><g id="Table-21"><rect class="cls-24" x="778.33" y="625.42" width="53.2" height="92.57" rx="26.6" ry="26.6"/><text class="cls-11" transform="translate(793.46 651.67) rotate(90)"><tspan class="cls-3" x="0" y="0">2</tspan><tspan x="18.47" y="0">1</tspan></text></g><g id="Table-22"><rect class="cls-24" x="701.72" y="625.42" width="53.2" height="92.57" rx="26.6" ry="26.6"/><text class="cls-11" transform="translate(716.85 650.1) rotate(90)"><tspan x="0" y="0">22</tspan></text></g><g id="Table-23"><rect class="cls-24" x="625.11" y="625.42" width="53.2" height="92.57" rx="26.6" ry="26.6"/><text class="cls-11" transform="translate(640.24 650.1) rotate(90)"><tspan x="0" y="0">23</tspan></text></g><g id="Table-24"><rect class="cls-24" x="548.51" y="625.42" width="53.2" height="92.57" rx="26.6" ry="26.6"/><text class="cls-11" transform="translate(563.63 650.1) rotate(90)"><tspan x="0" y="0">24</tspan></text></g><g id="Table-25"><rect class="cls-24" x="471.9" y="625.42" width="53.2" height="92.57" rx="26.6" ry="26.6"/><text class="cls-11" transform="translate(487.03 650.1) rotate(90)"><tspan x="0" y="0">25</tspan></text></g><g id="Table-26"><rect class="cls-24" x="318.69" y="625.42" width="53.2" height="92.57" rx="26.6" ry="26.6"/><text class="cls-11" transform="translate(333.82 650.1) rotate(90)"><tspan x="0" y="0">26</tspan></text></g><g id="Table-27"><rect class="cls-24" x="242.08" y="625.42" width="53.2" height="92.57" rx="26.6" ry="26.6"/><text class="cls-11" transform="translate(257.21 650.55) rotate(90)"><tspan class="cls-35" x="0" y="0">2</tspan><tspan x="20.7" y="0">7</tspan></text></g><g id="Table-28"><rect class="cls-24" x="165.47" y="625.42" width="53.2" height="92.57" rx="26.6" ry="26.6"/><text class="cls-11" transform="translate(180.6 650.1) rotate(90)"><tspan x="0" y="0">28</tspan></text></g><g id="Table-29"><rect class="cls-24" x="88.87" y="625.42" width="53.2" height="92.57" rx="26.6" ry="26.6"/><text class="cls-11" transform="translate(104 650.1) rotate(90)"><tspan x="0" y="0">29</tspan></text></g><g id="Table-30"><rect class="cls-24" x="854.94" y="510.16" width="53.2" height="92.57" rx="26.6" ry="26.6"/><text class="cls-11" transform="translate(870.06 534.85) rotate(90)"><tspan x="0" y="0">30</tspan></text></g><g id="Feature"><rect class="cls-24" x="854.94" y="625.42" width="129.81" height="207.82" rx="26.6" ry="26.6"/><text class="cls-11" transform="translate(931.54 666.84) rotate(90) scale(.92 1)"><tspan class="cls-21" x="0" y="0">F</tspan><tspan x="16.74" y="0">eature </tspan><tspan class="cls-25" x="22.9" y="43.2">T</tspan><tspan x="38.52" y="43.2">able</tspan></text></g><g id="Table-31"><rect class="cls-24" x="778.33" y="510.16" width="53.2" height="92.57" rx="26.6" ry="26.6"/><text class="cls-11" transform="translate(793.46 536.65) rotate(90)"><tspan class="cls-6" x="0" y="0">3</tspan><tspan x="18" y="0">1</tspan></text></g><g id="Table-32"><rect class="cls-24" x="701.72" y="510.16" width="53.2" height="92.57" rx="26.6" ry="26.6"/><text class="cls-11" transform="translate(716.85 534.85) rotate(90)"><tspan x="0" y="0">32</tspan></text></g><g id="Table-33"><rect class="cls-24" x="625.11" y="510.16" width="53.2" height="92.57" rx="26.6" ry="26.6"/><text class="cls-11" transform="translate(640.24 534.85) rotate(90)"><tspan x="0" y="0">33</tspan></text></g><g id="Table-34"><rect class="cls-24" x="548.51" y="510.16" width="53.2" height="92.57" rx="26.6" ry="26.6"/><text class="cls-11" transform="translate(563.63 534.85) rotate(90)"><tspan x="0" y="0">34</tspan></text></g><g id="Table-35"><rect class="cls-24" x="471.9" y="510.16" width="53.2" height="92.57" rx="26.6" ry="26.6"/><text class="cls-11" transform="translate(487.03 534.85) rotate(90)"><tspan x="0" y="0">35</tspan></text></g><g id="Table-36"><rect class="cls-24" x="318.69" y="510.16" width="53.2" height="92.57" rx="26.6" ry="26.6"/><text class="cls-11" transform="translate(333.82 534.85) rotate(90)"><tspan x="0" y="0">36</tspan></text></g><g id="Table-37"><rect class="cls-24" x="242.08" y="510.16" width="53.2" height="92.57" rx="26.6" ry="26.6"/><text class="cls-11" transform="translate(257.21 535.75) rotate(90)"><tspan class="cls-23" x="0" y="0">3</tspan><tspan x="19.8" y="0">7</tspan></text></g><g id="Table-38"><rect class="cls-24" x="165.47" y="510.16" width="53.2" height="92.57" rx="26.6" ry="26.6"/><text class="cls-11" transform="translate(180.6 534.85) rotate(90)"><tspan x="0" y="0">38</tspan></text></g><g id="Table-39"><rect class="cls-24" x="88.87" y="510.16" width="53.2" height="92.57" rx="26.6" ry="26.6"/><text class="cls-11" transform="translate(104 534.85) rotate(90)"><tspan x="0" y="0">39</tspan></text></g><g id="Table-100"><rect class="cls-24" x="931.54" y="452.65" width="53.2" height="92.57" rx="26.6" ry="26.6"/><text class="cls-10" transform="translate(946.67 472.39) rotate(90)"><tspan class="cls-4" x="0" y="0">1</tspan><tspan x="15.9" y="0">00</tspan></text></g><g id="Table-40"><rect class="cls-24" x="854.94" y="394.91" width="53.2" height="92.57" rx="26.6" ry="26.6"/><text class="cls-11" transform="translate(870.06 419.6) rotate(90)"><tspan x="0" y="0">40</tspan></text></g><g id="Table-41"><rect class="cls-24" x="778.33" y="394.91" width="53.2" height="92.57" rx="26.6" ry="26.6"/><text class="cls-11" transform="translate(793.46 420.95) rotate(90)"><tspan class="cls-31" x="0" y="0">4</tspan><tspan x="18.9" y="0">1</tspan></text></g><g id="Table-42"><rect class="cls-24" x="701.72" y="394.91" width="53.2" height="92.57" rx="26.6" ry="26.6"/><text class="cls-11" transform="translate(716.85 419.6) rotate(90)"><tspan x="0" y="0">42</tspan></text></g><g id="Table-43"><rect class="cls-24" x="625.11" y="394.91" width="53.2" height="92.57" rx="26.6" ry="26.6"/><text class="cls-11" transform="translate(640.24 419.6) rotate(90)"><tspan x="0" y="0">43</tspan></text></g><g id="Table-44"><rect class="cls-24" x="548.51" y="394.91" width="53.2" height="92.57" rx="26.6" ry="26.6"/><text class="cls-11" transform="translate(563.63 419.15) rotate(90)"><tspan class="cls-20" x="0" y="0">4</tspan><tspan class="cls-33" x="22.5" y="0">4</tspan></text></g><g id="Table-45"><rect class="cls-24" x="471.9" y="394.91" width="53.2" height="92.57" rx="26.6" ry="26.6"/><text class="cls-11" transform="translate(487.03 419.6) rotate(90)"><tspan x="0" y="0">45</tspan></text></g><g id="Table-46"><rect class="cls-24" x="318.69" y="394.91" width="53.2" height="92.57" rx="26.6" ry="26.6"/><text class="cls-11" transform="translate(333.82 419.6) rotate(90)"><tspan x="0" y="0">46</tspan></text></g><g id="Table-47"><rect class="cls-24" x="242.08" y="394.91" width="53.2" height="92.57" rx="26.6" ry="26.6"/><text class="cls-11" transform="translate(257.21 420.49) rotate(90)"><tspan class="cls-23" x="0" y="0">4</tspan><tspan x="19.8" y="0">7</tspan></text></g><g id="Table-48"><rect class="cls-24" x="165.47" y="394.91" width="53.2" height="92.57" rx="26.6" ry="26.6"/><text class="cls-11" transform="translate(180.6 419.6) rotate(90)"><tspan x="0" y="0">48</tspan></text></g><g id="Table-49"><rect class="cls-24" x="88.87" y="394.91" width="53.2" height="92.57" rx="26.6" ry="26.6"/><text class="cls-11" transform="translate(104 419.6) rotate(90)"><tspan x="0" y="0">49</tspan></text></g><g id="Table-50"><rect class="cls-24" x="242.08" y="279.66" width="53.2" height="92.57" rx="26.6" ry="26.6"/><text class="cls-11" transform="translate(257.21 304.34) rotate(90)"><tspan x="0" y="0">50</tspan></text></g><g id="Table-51"><rect class="cls-24" x="165.47" y="279.66" width="53.2" height="92.57" rx="26.6" ry="26.6"/><text class="cls-11" transform="translate(180.6 306.38) rotate(90)"><tspan class="cls-29" x="0" y="0">5</tspan><tspan x="17.53" y="0">1</tspan></text></g><g id="Table-52"><rect class="cls-24" x="88.87" y="279.66" width="53.2" height="92.57" rx="26.6" ry="26.6"/><text class="cls-11" transform="translate(104 304.34) rotate(90)"><tspan x="0" y="0">52</tspan></text></g><g id="Table-53"><rect class="cls-24" x="778.33" y="164.4" width="53.2" height="92.57" rx="26.6" ry="26.6"/><text class="cls-11" transform="translate(793.46 189.09) rotate(90)"><tspan x="0" y="0">53</tspan></text></g><g id="Table-54"><rect class="cls-24" x="701.72" y="164.4" width="53.2" height="92.57" rx="26.6" ry="26.6"/><text class="cls-11" transform="translate(716.85 189.09) rotate(90)"><tspan x="0" y="0">54</tspan></text></g><g id="Table-55"><rect class="cls-24" x="625.11" y="164.4" width="53.2" height="92.57" rx="26.6" ry="26.6"/><text class="cls-11" transform="translate(640.24 189.09) rotate(90)"><tspan x="0" y="0">55</tspan></text></g><g id="Table-56"><rect class="cls-24" x="471.9" y="164.4" width="53.2" height="92.57" rx="26.6" ry="26.6"/><text class="cls-11" transform="translate(487.03 189.09) rotate(90)"><tspan x="0" y="0">56</tspan></text></g><g id="Table-57"><rect class="cls-24" x="395.29" y="164.4" width="53.2" height="92.57" rx="26.6" ry="26.6"/><text class="cls-11" transform="translate(410.42 189.99) rotate(90)"><tspan class="cls-23" x="0" y="0">5</tspan><tspan x="19.8" y="0">7</tspan></text></g><g id="Table-58"><rect class="cls-24" x="318.69" y="164.4" width="53.2" height="92.57" rx="26.6" ry="26.6"/><text class="cls-11" transform="translate(333.82 189.09) rotate(90)"><tspan x="0" y="0">58</tspan></text></g><g id="Table-59"><rect class="cls-24" x="242.08" y="164.4" width="53.2" height="92.57" rx="26.6" ry="26.6"/><text class="cls-11" transform="translate(257.21 189.09) rotate(90)"><tspan x="0" y="0">59</tspan></text></g><g id="Table-60"><rect class="cls-24" x="165.47" y="164.4" width="53.2" height="92.57" rx="26.6" ry="26.6"/><text class="cls-11" transform="translate(180.6 189.09) rotate(90)"><tspan x="0" y="0">60</tspan></text></g><g id="Table-61"><rect class="cls-24" x="88.87" y="164.4" width="53.2" height="92.57" rx="26.6" ry="26.6"/><text class="cls-11" transform="translate(104 190.89) rotate(90)"><tspan class="cls-6" x="0" y="0">6</tspan><tspan x="18" y="0">1</tspan></text></g><g id="Table-62"><rect class="cls-24" x="778.33" y="49.15" width="53.2" height="92.57" rx="26.6" ry="26.6"/><text class="cls-11" transform="translate(793.46 73.84) rotate(90)"><tspan x="0" y="0">62</tspan></text></g><g id="Table-63"><rect class="cls-24" x="701.72" y="49.15" width="53.2" height="92.57" rx="26.6" ry="26.6"/><text class="cls-11" transform="translate(716.85 73.84) rotate(90)"><tspan x="0" y="0">63</tspan></text></g><g id="Table-64"><rect class="cls-24" x="625.11" y="49.15" width="53.2" height="92.57" rx="26.6" ry="26.6"/><text class="cls-11" transform="translate(640.24 73.15) rotate(90)"><tspan class="cls-2" x="0" y="0">6</tspan><tspan x="22.97" y="0">4</tspan></text></g><g id="Table-65"><rect class="cls-24" x="471.9" y="49.15" width="53.2" height="92.57" rx="26.6" ry="26.6"/><text class="cls-11" transform="translate(487.03 73.84) rotate(90)"><tspan x="0" y="0">65</tspan></text></g><g id="Table-66"><rect class="cls-24" x="395.29" y="49.15" width="53.2" height="92.57" rx="26.6" ry="26.6"/><text class="cls-11" transform="translate(410.42 73.84) rotate(90)"><tspan x="0" y="0">66</tspan></text></g><g id="Table-67"><rect class="cls-24" x="318.69" y="49.15" width="53.2" height="92.57" rx="26.6" ry="26.6"/><text class="cls-11" transform="translate(333.82 74.74) rotate(90)"><tspan class="cls-23" x="0" y="0">6</tspan><tspan x="19.8" y="0">7</tspan></text></g><g id="Table-68"><rect class="cls-24" x="242.08" y="49.15" width="53.2" height="92.57" rx="26.6" ry="26.6"/><text class="cls-11" transform="translate(257.21 73.84) rotate(90)"><tspan x="0" y="0">68</tspan></text></g><g id="Table-69"><rect class="cls-24" x="165.47" y="49.15" width="53.2" height="92.57" rx="26.6" ry="26.6"/><text class="cls-11" transform="translate(180.6 73.84) rotate(90)"><tspan x="0" y="0">69</tspan></text></g><g id="Table-70"><rect class="cls-24" x="88.87" y="49.15" width="53.2" height="92.57" rx="26.6" ry="26.6"/><text class="cls-11" transform="translate(104 73.84) rotate(90)"><tspan x="0" y="0">70</tspan></text></g><circle id="entrance-main" class="cls-5" cx="421.25" cy="985.95" r="27.25"/><circle id="entrance-side" class="cls-5" cx="1030" cy="319.5" r="27.25"/><circle id="side-hall" class="cls-5" cx="1011.99" cy="27.25" r="27.25"/></svg>